<?xml version="1.0" encoding="UTF-8" standalone="no"?>
<!-- Created with Inkscape (http://www.inkscape.org/) -->

<svg
   width="74.057938mm"
   height="74.038925mm"
   viewBox="0 0 74.057938 74.038925"
   version="1.1"
   id="svg1"
   xmlns="http://www.w3.org/2000/svg"
   xmlns:svg="http://www.w3.org/2000/svg">
  <defs
     id="defs1" />
  <g
     id="layer1"
     transform="translate(-89.378625,-222.96107)">
    <path
       id="XMLID_283_"
       d="m 151.89967,233.08815 c -0.0212,-0.0243 -0.0402,-0.05 -0.0624,-0.0741 -12.97702,-13.87898 -38.73103,-12.92039 -50.81799,0 -0.0222,0.0238 -0.0413,0.0497 -0.0624,0.0741 -13.177566,12.49891 -17.568056,34.9578 0.0624,53.81148 0.1098,0.11748 0.22886,0.2204 0.35348,0.31327 14.17981,13.04528 35.92274,13.05375 50.11182,-2.6e-4 12.6955,-9.47579 18.7108,-36.77127 0.41513,-54.12449 z m -10.95428,24.22286 c -0.11642,-4.47675 -0.52864,-8.91275 -1.22873,-13.03681 3.56235,-1.3679 6.95775,-3.30835 10.04703,-5.82189 4.65905,5.05169 7.70228,11.61362 8.30289,18.8587 z m -8.59869,26.10168 c -2.11932,6.12193 -4.513,8.29416 -5.91873,8.29416 -1.40573,0 -3.79942,-2.17223 -5.91873,-8.29416 -0.449,-1.29699 -0.85037,-2.68102 -1.20915,-4.12856 4.68498,-1.07579 9.5676,-1.07791 14.25602,-0.002 -0.35851,1.4486 -0.76015,2.83316 -1.20941,4.13068 z m 6.27274,-2.51116 c 2.52915,1.05145 4.95062,2.44501 7.19481,4.18094 -3.1787,2.45825 -6.83366,4.32832 -10.80161,5.44407 1.47108,-2.62652 2.67493,-5.91926 3.6068,-9.62501 z m -20.77614,9.62528 c -3.96822,-1.11575 -7.62291,-2.98583 -10.80162,-5.44407 2.24235,-1.73382 4.66408,-3.12764 7.19535,-4.17936 0.93159,3.70496 2.13545,6.99691 3.60627,9.62343 z m 0.40481,-16.43248 c -0.59002,-3.64569 -0.93716,-7.54512 -1.04484,-11.49165 h 18.44913 c -0.10769,3.94732 -0.45482,7.84754 -1.0451,11.49403 -5.37819,-1.21391 -10.97598,-1.21629 -16.35919,-0.002 z m -1.04484,-16.78332 c 0.10768,-3.94705 0.45482,-7.84701 1.0451,-11.49323 5.37819,1.21417 10.97598,1.21708 16.35946,0.003 0.58975,3.64543 0.93688,7.54459 1.04457,11.49059 h -18.44913 z m 3.30597,-20.81 c 2.11931,-6.12193 4.513,-8.29416 5.91873,-8.29416 1.40573,0 3.79941,2.17223 5.91873,8.29416 0.44899,1.29698 0.85037,2.68102 1.20914,4.12855 -4.68445,1.0758 -9.56733,1.07845 -14.25628,0.003 0.35878,-1.44859 0.76042,-2.83369 1.20968,-4.1312 z m -6.27274,2.51142 c -2.52889,-1.05119 -4.95036,-2.44501 -7.19482,-4.18121 3.17871,-2.45824 6.83366,-4.32832 10.80188,-5.44407 -1.47135,2.62679 -2.67547,5.91953 -3.60706,9.62528 z m 20.77614,-9.62554 c 3.96822,1.11575 7.62291,2.98582 10.80161,5.44407 -2.24234,1.73355 -4.66381,3.12737 -7.19534,4.17935 -0.9316,-3.70496 -2.13545,-6.9969 -3.60627,-9.62342 z m -31.92039,9.06515 c 3.0853,2.50931 6.48123,4.44924 10.04755,5.81872 -0.70062,4.12512 -1.11284,8.56218 -1.22926,13.04025 H 94.789094 c 0.60061,-7.24535 3.64411,-13.80728 8.303156,-18.85897 z m -8.303156,24.15064 h 17.121446 c 0.11642,4.47702 0.52864,8.91328 1.22899,13.03761 -3.56288,1.3679 -6.95827,3.30808 -10.04728,5.8211 -4.659046,-5.05169 -7.702546,-11.61362 -8.303156,-18.85871 z m 54.974596,18.85897 c -3.08504,-2.50904 -6.48124,-4.44897 -10.04755,-5.81819 0.70061,-4.12538 1.1131,-8.56244 1.22925,-13.04078 h 17.12145 c -0.6006,7.24535 -3.6441,13.80728 -8.30315,18.85897 z"
       style="stroke-width:0.264583" />
  </g>
</svg>
