<svg width="32" height="32" viewBox="0 0 32 32" fill="none" xmlns="http://www.w3.org/2000/svg">
  <!-- Background circle -->
  <circle cx="16" cy="16" r="15" fill="#2D5016" stroke="#4A7C23" stroke-width="2"/>
  
  <!-- Wheat stalks -->
  <g transform="translate(16, 16)">
    <!-- Left wheat stalk -->
    <path d="M-6 -8 L-6 6" stroke="#D4AF37" stroke-width="1.5" stroke-linecap="round"/>
    <ellipse cx="-7" cy="-6" rx="1.5" ry="0.8" fill="#F4D03F"/>
    <ellipse cx="-5" cy="-4" rx="1.5" ry="0.8" fill="#F4D03F"/>
    <ellipse cx="-7" cy="-2" rx="1.5" ry="0.8" fill="#F4D03F"/>
    <ellipse cx="-5" cy="0" rx="1.5" ry="0.8" fill="#F4D03F"/>
    
    <!-- Center wheat stalk -->
    <path d="M0 -10 L0 6" stroke="#D4AF37" stroke-width="1.5" stroke-linecap="round"/>
    <ellipse cx="-1" cy="-8" rx="1.5" ry="0.8" fill="#F4D03F"/>
    <ellipse cx="1" cy="-6" rx="1.5" ry="0.8" fill="#F4D03F"/>
    <ellipse cx="-1" cy="-4" rx="1.5" ry="0.8" fill="#F4D03F"/>
    <ellipse cx="1" cy="-2" rx="1.5" ry="0.8" fill="#F4D03F"/>
    <ellipse cx="-1" cy="0" rx="1.5" ry="0.8" fill="#F4D03F"/>
    
    <!-- Right wheat stalk -->
    <path d="M6 -8 L6 6" stroke="#D4AF37" stroke-width="1.5" stroke-linecap="round"/>
    <ellipse cx="5" cy="-6" rx="1.5" ry="0.8" fill="#F4D03F"/>
    <ellipse cx="7" cy="-4" rx="1.5" ry="0.8" fill="#F4D03F"/>
    <ellipse cx="5" cy="-2" rx="1.5" ry="0.8" fill="#F4D03F"/>
    <ellipse cx="7" cy="0" rx="1.5" ry="0.8" fill="#F4D03F"/>
    
    <!-- Small leaves at base -->
    <path d="M-8 4 Q-6 2 -4 4" fill="#4A7C23"/>
    <path d="M4 4 Q6 2 8 4" fill="#4A7C23"/>
  </g>
</svg>