<?xml version="1.0" encoding="UTF-8" standalone="no"?>
<!-- Created with Inkscape (http://www.inkscape.org/) -->

<svg
   width="53.303375mm"
   height="52.436165mm"
   viewBox="0 0 53.303375 52.436165"
   version="1.1"
   id="svg1"
   xmlns="http://www.w3.org/2000/svg"
   xmlns:svg="http://www.w3.org/2000/svg">
  <defs
     id="defs1" />
  <g
     id="layer1"
     transform="translate(-94.221551,-43.590103)">
    <path
       id="rect3"
       style="stroke-width:0.499999"
       d="m 102.84286,-41.197144 c -1.37791,1.377909 -2.22752,3.283958 -2.22752,5.395608 0,4.223301 3.39983,7.623132 7.62313,7.623132 h 19.27744 l -3.7e-4,18.050768 c 0,4.2233007 3.39984,7.6231326 7.62314,7.6231326 4.2233,0 7.62349,-3.4001973 7.62349,-7.6234976 v -18.050403 h 18.05041 c 4.2233,0 7.6235,-3.400197 7.6235,-7.623498 0,-4.2233 -3.4002,-7.622767 -7.6235,-7.622767 H 142.76217 V -62.70211 c 0,-4.2233 -3.39983,-7.623132 -7.62313,-7.623132 -4.2233,0 -7.62313,3.399832 -7.62313,7.623132 v 19.277441 h -19.27744 c -2.11165,0 -4.0177,0.849616 -5.39561,2.227525 z"
       transform="rotate(45)" />
  </g>
</svg>
