<?xml version="1.0" encoding="UTF-8" standalone="no"?>
<!-- Created with Inkscape (http://www.inkscape.org/) -->

<svg
   width="67.820663mm"
   height="56.605331mm"
   viewBox="0 0 67.820663 56.605331"
   version="1.1"
   id="svg1"
   xmlns="http://www.w3.org/2000/svg"
   xmlns:svg="http://www.w3.org/2000/svg">
  <defs
     id="defs1" />
  <g
     id="layer1"
     transform="translate(-86.529087,-103.54355)">
    <g
       id="g4"
       transform="matrix(0.26458333,0,0,0.26458333,59.190314,103.54365)">
      <path
         id="rect1"
         style="stroke-width:1.88976"
         d="m 132.14014,-3.7561516e-4 c -15.96208,0 -28.8125,12.85041961516 -28.8125,28.81250061516 0,15.962081 12.85042,28.8125 28.8125,28.8125 h 198.70508 c 15.96208,0 28.8125,-12.850419 28.8125,-28.8125 0,-15.962081 -12.85042,-28.81250061516 -28.8125,-28.81250061516 z m 0,78.15820361516 c -15.96208,0 -28.8125,12.85042 -28.8125,28.812502 0,15.96208 12.85042,28.8125 28.8125,28.8125 h 198.70508 c 15.96208,0 28.8125,-12.85042 28.8125,-28.8125 0,-15.962082 -12.85042,-28.812502 -28.8125,-28.812502 z m 0,78.158202 c -15.96208,0 -28.8125,12.85042 -28.8125,28.8125 0,15.96208 12.85042,28.8125 28.8125,28.8125 h 198.70508 c 15.96208,0 28.8125,-12.85042 28.8125,-28.8125 0,-15.96208 -12.85042,-28.8125 -28.8125,-28.8125 z" />
    </g>
  </g>
</svg>
